<svg width="160" height="160" viewBox="0 0 160 160" fill="none" xmlns="http://www.w3.org/2000/svg">
<path d="M54.5215 147.357H86.7048V120.948H54.5215V147.357Z" fill="#D2DDEC"/>
<path d="M78.6422 147.172C78.5977 147.172 78.5615 141.285 78.5615 134.025C78.5615 126.762 78.5977 120.877 78.6422 120.877C78.6864 120.877 78.7225 126.762 78.7225 134.025C78.7225 141.285 78.6864 147.172 78.6422 147.172Z" fill="#E3E3E2"/>
<path d="M81.5098 144.314H83.9768V141.347H81.5098V144.314Z" fill="#FCFDFD"/>
<path d="M64.3408 121.017V126.652H67.9966V121.017H64.3408Z" fill="#E3E3E2"/>
<path d="M64.3408 141.645V147.28H67.9966V141.645H64.3408Z" fill="#E3E3E2"/>
<path d="M104.521 147.626H145.1V114.327H104.521V147.626Z" fill="#D2DDEC"/>
<path d="M134.933 147.392C134.888 147.392 134.853 139.969 134.853 130.815C134.853 121.658 134.888 114.237 134.933 114.237C134.977 114.237 135.013 121.658 135.013 130.815C135.013 139.969 134.977 147.392 134.933 147.392Z" fill="#E3E3E2"/>
<path d="M141.66 143.789H138.549V140.048H141.66V143.789Z" fill="#FCFDFD"/>
<path d="M116.899 121.519H121.509V114.413H116.899V121.519Z" fill="#E3E3E2"/>
<path d="M116.899 147.527H121.509V140.422H116.899V147.527Z" fill="#E3E3E2"/>
<path d="M28.0877 115.307C29.7301 114.405 31.664 114.288 33.4874 114.609C34.4669 114.781 35.4882 115.092 36.1547 115.875C36.8212 116.658 36.9476 118.036 36.1822 118.709C35.7266 119.109 35.0912 119.17 34.5004 119.163C33.0729 119.145 31.4892 118.877 30.3489 119.791C29.6982 120.312 29.2652 121.179 28.4873 121.435C27.7264 121.687 26.8675 121.208 26.464 120.478C26.0606 119.747 26.0469 118.834 26.2351 118.01C26.2351 118.01 26.4332 116.215 28.0877 115.307Z" fill="#D2DDEC"/>
<path d="M24.3253 107.579C25.3295 109.105 27.2814 108.6 28.1866 107.668C29.0915 106.737 29.474 105.387 29.8222 104.1C30.6178 101.158 31.4201 98.0722 30.8284 95.077C30.6515 94.1811 30.3369 93.2879 29.7452 92.6238C29.1538 91.9591 28.2443 91.564 27.4126 91.7977C26.4286 92.0745 25.8168 93.0999 25.3748 94.0756C24.0752 96.943 23.3873 100.122 23.3771 103.306C23.3721 104.792 23.5369 106.352 24.3253 107.579Z" fill="#D2DDEC"/>
<path d="M21.5662 109.769C22.6567 108.392 22.8637 106.383 22.3784 104.658C21.8932 102.934 20.7971 101.466 19.5337 100.268C18.0524 98.8636 16.3114 97.7708 14.4396 97.0706C13.703 96.7951 12.9259 96.5778 12.1488 96.6564C11.3715 96.7356 10.5888 97.1584 10.2262 97.8941C9.69013 98.9819 10.2041 100.301 10.7599 101.378C11.7394 103.274 12.8593 105.088 14.1057 106.798C15.1086 108.174 16.2575 109.531 17.7858 110.152C19.314 110.774 20.9018 110.701 21.7118 109.573" fill="#D2DDEC"/>
<path d="M24.2556 130.599C24.2745 130.6 24.305 130.353 24.3464 129.905C24.3927 129.401 24.4507 128.767 24.5196 128.013C24.6025 127.216 24.7119 126.269 24.9197 125.237C25.127 124.208 25.4514 123.092 25.8681 121.961C26.2995 120.836 26.8256 119.814 27.4405 118.996C28.051 118.175 28.761 117.581 29.4285 117.238C30.0938 116.888 30.6903 116.747 31.1026 116.684C31.5184 116.638 31.7514 116.603 31.7515 116.584C31.7518 116.564 31.5184 116.561 31.0911 116.573C30.668 116.603 30.0466 116.717 29.3455 117.056C28.6421 117.388 27.8889 117.992 27.2485 118.83C26.6028 119.664 26.0576 120.709 25.6185 121.854C25.1947 123.005 24.8749 124.132 24.677 125.184C24.4795 126.233 24.3891 127.191 24.3301 127.995C24.2736 128.798 24.2524 129.449 24.2421 129.899C24.2326 130.348 24.2374 130.598 24.2556 130.599Z" fill="#A6B6CC"/>
<path d="M24.3784 129.143C24.3877 129.142 24.3933 129.031 24.3959 128.82C24.3953 128.579 24.3945 128.274 24.3936 127.9C24.3916 127.102 24.3918 125.946 24.4321 124.519C24.4985 121.666 24.7295 118.594 25.1755 114.264C25.598 110.192 26.1649 105.453 26.7634 102.373C26.8917 101.672 27.021 101.041 27.1425 100.489C27.2586 99.9361 27.3575 99.459 27.4532 99.0728C27.5353 98.7092 27.6021 98.4133 27.6554 98.1786C27.6987 97.9731 27.717 97.8636 27.7082 97.861C27.6993 97.8584 27.6633 97.9622 27.603 98.1628C27.5371 98.3942 27.454 98.6858 27.3519 99.0445C27.2406 99.4268 27.1266 99.9006 26.9962 100.452C26.8604 101.002 26.7179 101.631 26.5774 102.33C25.9853 105.122 25.3585 109.024 24.9082 113.365C24.4611 117.704 24.2596 121.654 24.2419 124.515C24.2258 125.946 24.2545 127.104 24.2888 127.903C24.3104 128.277 24.3278 128.581 24.3416 128.823C24.3567 129.033 24.3691 129.143 24.3784 129.143Z" fill="#A6B6CC"/>
<path d="M24.3968 121.522C24.4154 121.521 24.4122 121.18 24.3906 120.561C24.3571 119.943 24.2773 119.051 24.1138 117.957C23.9405 116.866 23.6982 115.571 23.3177 114.163C23.1529 113.519 22.7654 111.978 21.8266 109.674C20.5895 106.552 18.9091 103.999 17.4472 102.419C17.1042 101.999 16.7224 101.696 16.417 101.4C16.2589 101.257 16.1191 101.116 15.977 101.004C15.8339 100.899 15.7007 100.801 15.5772 100.71C15.0961 100.36 14.8265 100.175 14.8166 100.192C14.7734 100.255 15.8944 100.957 17.3096 102.559C18.7193 104.157 20.3528 106.692 21.5796 109.787C22.2638 111.466 22.7408 112.964 23.0794 114.235C23.4705 115.629 23.7301 116.912 23.9264 117.992C24.1128 119.074 24.2209 119.958 24.286 120.57C24.3397 121.183 24.3783 121.523 24.3968 121.522Z" fill="#A6B6CC"/>
<path d="M16.9941 133.807L17.7119 144.269H30.3435L31.0613 133.807H16.9941Z" fill="#D2DDEC"/>
<path d="M15.7744 129.684V133.808H32.5689V129.684H15.7744Z" fill="#D2DDEC"/>
<path d="M15.7744 143.868V145.011H32.2914V143.868H15.7744Z" fill="#E3E3E2"/>
<path d="M17.337 146.896L16.5635 144.884H31.6896L30.7871 146.896H17.337Z" fill="#E3E3E2"/>
<path d="M30.8256 137.226C30.8285 137.228 30.8085 137.261 30.7668 137.322C30.7167 137.393 30.6546 137.48 30.578 137.588C30.3987 137.832 30.1523 138.168 29.8423 138.59L29.8095 138.635L29.7778 138.588C29.3154 137.908 28.6974 136.998 27.97 135.928H28.0741C27.5362 136.738 26.9372 137.64 26.2942 138.61L26.2384 138.693L26.1759 138.614C25.5189 137.783 24.8056 136.88 24.0649 135.942L24.1867 135.94C24.15 135.99 24.1104 136.043 24.0705 136.096C23.4159 136.969 22.7823 137.814 22.1831 138.613L22.1201 138.697L22.0621 138.61C21.4213 137.645 20.8226 136.744 20.2814 135.929L20.3848 135.934C19.5073 136.998 18.763 137.9 18.1919 138.593L18.1529 138.64L18.1232 138.587C17.8341 138.07 17.6036 137.658 17.4364 137.36C17.3647 137.226 17.3066 137.119 17.2603 137.033C17.2213 136.958 17.2031 136.918 17.2065 136.916C17.2097 136.914 17.2348 136.949 17.2801 137.02C17.3313 137.103 17.3955 137.206 17.475 137.334C17.6503 137.628 17.8923 138.032 18.1957 138.539L18.1273 138.534C18.6893 137.832 19.4216 136.919 20.2851 135.843L20.3395 135.775L20.3888 135.848C20.935 136.659 21.5391 137.556 22.1855 138.516L22.0646 138.513C22.6623 137.713 23.2943 136.866 23.9476 135.992C23.9874 135.939 24.027 135.886 24.0637 135.837L24.1238 135.756L24.1855 135.835C24.9241 136.774 25.6354 137.679 26.2904 138.512L26.1723 138.517C26.8218 137.553 27.4269 136.655 27.9699 135.849L28.0227 135.771L28.0741 135.849C28.7861 136.931 29.3909 137.85 29.8437 138.539L29.7793 138.536C30.1019 138.125 30.3583 137.798 30.5449 137.56C30.628 137.458 30.6955 137.374 30.7499 137.307C30.7971 137.251 30.8228 137.224 30.8256 137.226Z" fill="#A6B6CC"/>
<path d="M31.2374 133.738C31.2374 133.785 28.0722 133.822 24.1688 133.822C20.264 133.822 17.0996 133.785 17.0996 133.738C17.0996 133.692 20.264 133.655 24.1688 133.655C28.0722 133.655 31.2374 133.692 31.2374 133.738Z" fill="#F8F8F9"/>
<path d="M119.916 28.8231L117.327 28.8379L117.258 15.129L119.847 15.1145L119.916 28.8231Z" fill="#E3E3E2"/>
<path d="M101.567 22.7177L94.8616 22.7559L94.8232 15.188L101.529 15.1499L101.567 22.7177Z" fill="#D2DDEC"/>
<path d="M108.241 22.6803L101.535 22.7188L101.497 15.1506L108.203 15.1125L108.241 22.6803Z" fill="#EEF3F8"/>
<path d="M94.8347 17.278C99.2911 17.3175 103.759 17.2899 108.215 17.2126C108.306 17.211 108.306 17.0618 108.214 17.0611C103.757 17.0352 99.2898 17.0582 94.8341 17.1482C94.7556 17.1499 94.7559 17.2774 94.8347 17.278Z" fill="#D2DDEC"/>
<path d="M102.859 28.7588L90.6754 28.8281L90.6445 22.6608L102.827 22.5914L102.859 28.7588Z" fill="#D2DDEC"/>
<path d="M114.984 28.6901L102.8 28.7598L102.77 22.5921L114.953 22.5227L114.984 28.6901Z" fill="#EEF3F8"/>
<path d="M90.6522 24.3766C98.7455 24.4739 106.868 24.3868 114.961 24.2487C115.053 24.247 115.052 24.0977 114.96 24.0974C106.866 24.0517 98.7433 24.057 90.6516 24.2464C90.5728 24.2483 90.5734 24.3756 90.6522 24.3766Z" fill="#D2DDEC"/>
<path d="M133.298 31.0381H86.0957V28.8282H133.298V31.0381Z" fill="#E3E3E2"/>
<path d="M95.7406 37.4307H93.8242V29.8911H95.7406V37.4307Z" fill="#E3E3E2"/>
<path d="M124.345 37.4307H122.429V29.8911H124.345V37.4307Z" fill="#E3E3E2"/>
<path d="M122.47 28.8563L119.88 28.8711L119.785 10.0169L122.375 10.0021L122.47 28.8563Z" fill="#D2DDEC"/>
<path d="M126.498 28.7914L122.474 28.8145L122.397 13.5355L126.421 13.5124L126.498 28.7914Z" fill="#EEF3F8"/>
<path d="M126.394 16.4553C126.394 16.4961 125.493 16.5293 124.382 16.5293C123.271 16.5293 122.37 16.4961 122.37 16.4553C122.37 16.4142 123.271 16.381 124.382 16.381C125.493 16.381 126.394 16.4142 126.394 16.4553Z" fill="#D2DDEC"/>
<path d="M126.394 15.8134C126.394 15.8545 125.493 15.8877 124.382 15.8877C123.271 15.8877 122.37 15.8545 122.37 15.8134C122.37 15.7726 123.271 15.7394 124.382 15.7394C125.493 15.7394 126.394 15.7726 126.394 15.8134Z" fill="#D2DDEC"/>
<path d="M126.394 26.4924C126.394 26.5335 125.493 26.5664 124.382 26.5664C123.271 26.5664 122.37 26.5335 122.37 26.4924C122.37 26.4513 123.271 26.4181 124.382 26.4181C125.493 26.4181 126.394 26.4513 126.394 26.4924Z" fill="#D2DDEC"/>
<path d="M126.394 25.8505C126.394 25.8916 125.493 25.9248 124.382 25.9248C123.271 25.9248 122.37 25.8916 122.37 25.8505C122.37 25.8098 123.271 25.7766 124.382 25.7766C125.493 25.7766 126.394 25.8098 126.394 25.8505Z" fill="#D2DDEC"/>
<path d="M124.445 24.4502C124.406 24.4502 124.375 22.9087 124.375 21.0075C124.375 19.1061 124.406 17.5645 124.445 17.5645C124.483 17.5645 124.515 19.1061 124.515 21.0075C124.515 22.9087 124.483 24.4502 124.445 24.4502Z" fill="#D2DDEC"/>
<path d="M130.817 28.7969H126.437V17.2644H130.817V28.7969Z" fill="#D2DDEC"/>
<path d="M121.787 13.2208C121.787 13.6583 121.453 14.0127 121.042 14.0127C120.631 14.0127 120.298 13.6583 120.298 13.2208C120.298 12.7836 120.631 12.4292 121.042 12.4292C121.453 12.4292 121.787 12.7836 121.787 13.2208Z" fill="#EEF3F8"/>
<path d="M121.272 26.6152H120.812V15.3989H121.272V26.6152Z" fill="#EEF3F8"/>
<path d="M146.494 147.446C146.494 147.493 116.795 147.531 80.1681 147.531C43.5285 147.531 13.8359 147.493 13.8359 147.446C13.8359 147.398 43.5285 147.36 80.1681 147.36C116.795 147.36 146.494 147.398 146.494 147.446Z" fill="#1D2A30"/>
<path d="M49.0216 26.794C50.472 28.6666 51.2767 31.0931 51.252 33.5196C51.2377 34.906 50.9977 36.4353 51.7559 37.5633C52.3313 38.4194 53.3807 38.8477 53.8482 39.7755C54.4102 40.8909 53.931 42.2996 54.2771 43.5108C54.7674 45.2278 56.6573 45.9455 57.778 47.2865C58.7498 48.4493 59.1095 50.1509 58.718 51.6503C58.3268 53.1494 57.203 54.4043 55.8208 54.9129C55.0786 55.186 54.2304 55.2449 53.5274 54.8721C52.7695 54.4704 52.3013 53.6455 51.9216 52.8401C51.1753 51.2571 44.6332 42.6908 44.2627 40.9642" fill="#1D2A30"/>
<path d="M44.2622 24.7754C41.5872 24.3175 39.016 26.2071 37.889 28.8283C36.7619 31.4501 36.731 34.4312 36.6478 37.313C36.5647 40.1942 36.3745 43.2022 34.9919 45.6817C34.1145 47.2551 32.7557 48.6355 32.5426 50.4509C32.3519 52.0765 33.1427 53.7137 32.8802 55.3279C32.6516 56.7333 31.6449 57.9559 31.6847 59.3817C31.7328 61.0968 33.3909 62.3891 35.0031 62.4348C36.6152 62.4809 38.1215 61.5821 39.3854 60.5166C41.4361 58.7873 43.0985 56.54 44.1961 54.0129" fill="#1D2A30"/>
<path d="M39.861 31.562C39.5078 28.5606 41.5485 25.8174 44.4132 25.5272C47.1132 25.2533 49.5129 27.3922 49.9177 30.2457C50.2724 32.7469 50.5771 35.272 50.5663 36.1889C50.5332 38.9543 49.0123 40.031 48.3959 40.3542C48.2553 40.4278 47.8672 40.5116 47.7121 40.5353L47.6976 40.5567L48.2748 43.7311C48.5362 45.8111 47.4451 47.6659 45.4935 47.9687C43.535 48.2725 42.0042 46.6751 41.7054 44.5937L39.861 31.562Z" fill="#FCD5B5"/>
<path d="M49.3846 31.4574C49.3416 31.5221 48.9983 31.3265 48.5586 31.3959C48.1183 31.4587 47.8285 31.7493 47.7728 31.6993C47.746 31.6776 47.7837 31.5672 47.9094 31.4367C48.0327 31.3068 48.2546 31.1648 48.5287 31.1234C48.8031 31.0826 49.0484 31.154 49.1958 31.2434C49.3463 31.3328 49.4062 31.4285 49.3846 31.4574Z" fill="#1D2A30"/>
<path d="M45.4735 32.4691C45.4306 32.5335 45.087 32.3379 44.6476 32.4073C44.2072 32.4701 43.9174 32.761 43.8618 32.7111C43.8349 32.6894 43.872 32.5789 43.998 32.448C44.1216 32.3182 44.3432 32.1762 44.6173 32.1347C44.8917 32.094 45.137 32.1656 45.2847 32.2547C45.4346 32.3445 45.4948 32.4398 45.4735 32.4691Z" fill="#1D2A30"/>
<path d="M47.0764 34.9779C47.0709 34.9516 47.3376 34.8589 47.7723 34.73C47.8829 34.7001 47.9861 34.66 47.9939 34.5755C48.0084 34.4851 47.9438 34.3635 47.8703 34.2326C47.725 33.9598 47.573 33.6738 47.4133 33.3743C46.7742 32.1497 46.2944 31.1359 46.341 31.1089C46.3874 31.082 46.9433 32.0527 47.5823 33.277C47.7368 33.5794 47.8848 33.8674 48.026 34.1432C48.0869 34.2724 48.1811 34.4151 48.1484 34.6031C48.1304 34.6975 48.0569 34.7747 47.9877 34.807C47.9188 34.8415 47.8557 34.8523 47.8007 34.8645C47.3583 34.9595 47.0817 35.0042 47.0764 34.9779Z" fill="#1D2A30"/>
<path d="M47.6936 40.5382C47.6936 40.5382 46.0151 40.9498 43.7041 39.9207C43.7041 39.9207 44.7019 42.2061 47.849 41.3937L47.6936 40.5382Z" fill="#F6865E"/>
<path d="M45.2511 31.2419C45.2251 31.3757 44.7774 31.3835 44.2703 31.5298C43.7605 31.6653 43.3662 31.8904 43.2821 31.7872C43.2438 31.7372 43.3001 31.6061 43.4515 31.4565C43.6017 31.3079 43.8516 31.1495 44.1566 31.065C44.4616 30.9809 44.7524 30.9891 44.9517 31.0413C45.1522 31.0933 45.2613 31.1784 45.2511 31.2419Z" fill="#1D2A30"/>
<path d="M49.0258 30.4198C48.9627 30.5381 48.6445 30.475 48.2792 30.5263C47.9125 30.5638 47.6158 30.7022 47.5296 30.6019C47.4913 30.5529 47.5253 30.4385 47.6464 30.3172C47.7654 30.1962 47.9764 30.0798 48.2279 30.0489C48.4795 30.0187 48.71 30.0815 48.8515 30.1706C48.9952 30.26 49.0527 30.3629 49.0258 30.4198Z" fill="#1D2A30"/>
<path d="M44.5187 33.0727C44.549 33.2758 44.7357 33.4165 44.9356 33.3866C45.1355 33.3574 45.2733 33.169 45.243 32.9655C45.2131 32.7623 45.0264 32.6216 44.8265 32.6512C44.6266 32.6808 44.4888 32.8695 44.5187 33.0727Z" fill="#1D2A30"/>
<path d="M48.4163 32.1762C48.4463 32.3794 48.6329 32.5198 48.8328 32.4902C49.0324 32.4606 49.1705 32.2722 49.1403 32.0691C49.1103 31.8659 48.9233 31.7252 48.7237 31.7548C48.5238 31.7844 48.386 31.9731 48.4163 32.1762Z" fill="#1D2A30"/>
<path d="M47.7683 35.8897C47.4853 35.8026 47.2415 35.9552 47.1265 36.1735C47.0116 36.3921 47.0391 36.6906 47.2044 36.8684C47.3697 37.0469 47.6642 37.0749 47.8465 36.9171C47.9704 36.8099 48.0325 36.6386 48.0483 36.47C48.0631 36.3138 48.039 36.1468 47.9485 36.0229C47.8579 35.8993 47.6904 35.8325 47.5557 35.8963" fill="#F6865E"/>
<path d="M49.5741 28.0089C49.3727 26.9687 48.6997 26.0814 47.8802 25.4752C47.184 24.96 46.3605 24.6194 45.5133 24.5918C44.6657 24.5642 43.7971 24.8673 43.1846 25.4916C42.7319 25.9528 42.5002 26.6061 42.4789 27.2725L42.5283 26.8125C42.401 27.1903 42.4013 27.5999 42.5336 27.9711L42.5342 27.9733L42.5339 27.9717C42.6056 28.1729 42.6915 28.3744 42.7675 28.5763C42.9838 29.1509 43.4028 29.6358 43.9228 29.9136C44.1623 30.0415 44.4277 30.1273 44.6953 30.1138C44.9629 30.1004 45.233 29.9777 45.3955 29.7509C45.6276 29.4271 45.6007 28.978 45.563 28.5727C45.7929 28.9547 46.037 29.3508 46.4063 29.5773C46.7758 29.8032 47.3098 29.7953 47.5696 29.436C47.8215 29.0878 47.722 28.5878 47.5761 28.1772C47.8122 28.5602 48.1506 28.8712 48.5411 29.0641C48.7571 29.171 49.0118 29.2413 49.2308 29.1407C49.4162 29.0553 49.5411 28.8577 49.5887 28.6486C49.6359 28.4395 49.6149 28.2193 49.5741 28.0089Z" fill="#1D2A30"/>
<path d="M47.3422 28.8672C47.3144 28.8682 47.319 28.4773 47.2 27.8711C47.0807 27.275 46.7971 26.4328 46.133 25.8101C45.8058 25.5028 45.4295 25.29 45.0639 25.196C44.6977 25.0997 44.3492 25.1112 44.0689 25.1694C43.5007 25.2923 43.2254 25.5793 43.2084 25.5491C43.2028 25.5425 43.2621 25.4656 43.3981 25.3611C43.5331 25.2565 43.751 25.1309 44.0439 25.0514C44.3362 24.9744 44.7052 24.9485 45.0979 25.0425C45.4909 25.1345 45.8942 25.3571 46.2397 25.6819C46.9417 26.3407 47.2192 27.234 47.3119 27.8484C47.3592 28.1617 47.3697 28.4178 47.3675 28.594C47.3653 28.7702 47.3524 28.8672 47.3422 28.8672Z" fill="#365462"/>
<path d="M75.7998 67.1968L63.9184 62.1856C63.9184 62.1856 57.8318 53.6937 57.9588 53.529L53.6865 58.5069L59.8962 67.4505L74.2851 71.0343L81.1001 71.0928C80.5729 68.304 75.7998 67.1968 75.7998 67.1968Z" fill="#FCD5B5"/>
<path d="M49.9046 42.9716L48.2867 42.3042L41.2971 43.2474V44.5611L41.0969 44.5874C41.0969 44.5874 38.9258 45.0072 36.815 46.3554C34.2591 47.988 32.9308 51.1368 33.4042 54.2684C33.6884 56.1489 34.2395 58.4347 35.3009 59.7556C37.3309 62.2821 39.1849 59.1596 39.1849 59.1596C39.1849 59.1596 40.4591 62.2518 40.3859 63.7141C40.3245 64.9387 39.8154 67.4905 39.6517 68.2874C39.624 68.4218 39.707 68.5513 39.834 68.5763L54.5791 71.4766L54.6511 67.6423L54.1821 51.8715L53.5316 45.7466C53.5316 45.7466 53.552 42.8204 49.9046 42.9716Z" fill="#0565FF"/>
<path d="M53.3047 44.7268L58.9267 53.3691L54.4004 59.2354L53.3047 44.7268Z" fill="#0565FF"/>
<path d="M54.5108 62.9141C54.4997 62.9137 54.4922 62.7152 54.4888 62.3562C54.4842 61.9686 54.4783 61.4567 54.4709 60.8377C54.4419 59.5569 54.3739 57.7859 54.1341 55.8482C53.9011 53.9096 53.547 52.1774 53.276 50.9284C53.1428 50.3258 53.0325 49.8271 52.9494 49.4501C52.8722 49.1006 52.8348 48.9056 52.8456 48.9027C52.8561 48.8997 52.9142 49.0884 53.01 49.433C53.1061 49.7772 53.2365 50.2779 53.3866 50.8998C53.6864 52.1432 54.0596 53.8783 54.2936 55.8265C54.5346 57.7727 54.5846 59.5526 54.5846 60.8364C54.5788 61.4791 54.5701 61.9985 54.5513 62.3575C54.5358 62.7162 54.5219 62.9144 54.5108 62.9141Z" fill="#1D2A30"/>
<path d="M40.6766 49.7741C40.6757 49.8017 40.2499 49.7961 39.5654 49.8349C38.881 49.8734 37.9374 49.973 36.9141 50.1975C35.8909 50.424 34.9876 50.7311 34.3453 50.9855C33.7026 51.239 33.314 51.4241 33.3029 51.3991C33.298 51.3883 33.3902 51.3311 33.5615 51.236C33.7319 51.1397 33.9853 51.0145 34.3038 50.8728C34.9399 50.5878 35.8476 50.2587 36.8815 50.0299C37.9153 49.803 38.8713 49.7215 39.5615 49.7139C39.9067 49.7097 40.186 49.7176 40.3784 49.734C40.5711 49.7485 40.6769 49.7623 40.6766 49.7741Z" fill="#FCFDFD"/>
<path d="M53.6997 53.7305C53.7028 53.7522 53.4364 53.8209 52.9986 53.8923C52.5613 53.9639 51.952 54.0327 51.2765 54.0577C50.6007 54.082 49.9883 54.0576 49.5474 54.0182C49.1061 53.9787 48.836 53.9297 48.8379 53.9074C48.8398 53.8824 49.1129 53.889 49.5532 53.8972C49.9933 53.9057 50.6007 53.9107 51.271 53.8867C51.9412 53.8617 52.5468 53.8127 52.9853 53.7723C53.4238 53.7318 53.696 53.7055 53.6997 53.7305Z" fill="#FCFDFD"/>
<path d="M56.28 49.8189C56.3084 49.8505 55.8106 50.3798 55.0736 50.8568C54.3385 51.3377 53.6692 51.5682 53.6556 51.5264C53.638 51.4798 54.2687 51.1829 54.9896 50.7108C55.7126 50.243 56.2484 49.7805 56.28 49.8189Z" fill="#FCFDFD"/>
<path d="M54.0068 45.8118C54.0343 45.8407 53.3715 46.4752 52.3694 46.9223C51.3701 47.3769 50.4808 47.442 50.4805 47.4006C50.4719 47.348 51.3318 47.2089 52.3067 46.7645C53.285 46.3285 53.9772 45.7684 54.0068 45.8118Z" fill="#FCFDFD"/>
<path d="M54.3144 60.421C54.3187 60.4319 54.2146 60.4894 54.0224 60.5841C53.8308 60.6807 53.5465 60.8047 53.1902 60.9437C52.4789 61.2222 51.4663 61.5329 50.32 61.7216C49.1729 61.9077 48.1193 61.9346 47.3619 61.8958C46.9831 61.8774 46.6772 61.8498 46.467 61.8189C46.2569 61.79 46.1414 61.7683 46.1426 61.7564C46.1451 61.7285 46.6113 61.7686 47.3647 61.7752C48.118 61.7824 49.16 61.7367 50.2955 61.5523C51.4308 61.3655 52.4372 61.0766 53.1535 60.829C53.8707 60.5821 54.3039 60.395 54.3144 60.421Z" fill="#FCFDFD"/>
<path d="M54.4279 64.8779C54.4304 64.8832 54.385 64.9105 54.2963 64.9572C54.1897 65.0111 54.0608 65.0762 53.9048 65.1551C53.5649 65.3267 53.0615 65.5493 52.4312 65.7998C51.8017 66.0532 51.0379 66.3152 50.1792 66.5664C49.3186 66.8084 48.3613 67.0342 47.3463 67.2052C46.3293 67.3695 45.3529 67.4629 44.4636 67.5099C43.5737 67.5474 42.7712 67.5438 42.0988 67.505C41.4267 67.4695 40.8838 67.4195 40.5109 67.3656C40.3401 67.3406 40.1984 67.3202 40.0818 67.3035C39.9839 67.2873 39.9329 67.2762 39.9336 67.2703C39.9343 67.2643 39.9865 67.2643 40.0854 67.2693C40.2028 67.2775 40.3451 67.2873 40.517 67.2992C40.8906 67.3327 41.4332 67.3639 42.1031 67.3843C42.7731 67.4073 43.5715 67.3981 44.4562 67.3521C45.3405 67.2972 46.3105 67.1996 47.3215 67.0362C48.331 66.8662 49.2831 66.6463 50.1415 66.4139C50.9974 66.1726 51.7609 65.9237 52.3928 65.686C53.0254 65.4506 53.5337 65.2458 53.8804 65.0936C54.0407 65.0269 54.1736 64.9713 54.283 64.9259C54.3757 64.8891 54.4257 64.8727 54.4279 64.8779Z" fill="#FCFDFD"/>
<path d="M27.3162 134.765L25.6461 142.798L22.6034 148.746C22.3841 149.175 22.552 149.711 22.9688 149.915C23.2022 150.029 23.4708 150.017 23.6933 149.88C25.1088 149.01 30.3015 145.781 30.3929 145.186C30.4986 144.497 32.6831 136.838 32.6831 136.838L27.3162 134.765Z" fill="#69A3FF"/>
<path d="M23.3181 150C23.1989 150 23.0796 149.971 22.9697 149.914C23.0756 149.966 23.1888 149.991 23.3015 149.991C23.4373 149.991 23.5726 149.954 23.6943 149.879C24.3856 149.454 25.9778 148.467 27.4367 147.498C27.438 147.498 27.4408 147.498 27.4421 147.498C26.5064 148.122 25.2879 148.91 23.7169 149.885C23.5942 149.961 23.4563 150 23.3181 150ZM27.5933 147.394C27.8453 147.226 28.0925 147.059 28.3288 146.896H28.3329C28.1113 147.048 27.8671 147.214 27.5981 147.394C27.5967 147.394 27.5946 147.394 27.5933 147.394Z" fill="white"/>
<path d="M28.3322 146.896H28.3281C29.2528 146.258 30.0148 145.687 30.287 145.365C30.207 145.499 30.1035 145.617 29.9805 145.711C29.6991 145.928 29.1847 146.31 28.3322 146.896Z" fill="#F6F7F7"/>
<path d="M30.4622 144.884H30.458C30.475 144.814 30.4947 144.734 30.517 144.646H30.5173L30.4622 144.884Z" fill="#F6F7F7"/>
<path d="M30.4121 145.084C30.4234 145.03 30.4389 144.963 30.4578 144.884H30.4621L30.4389 144.985C30.4312 145.018 30.4222 145.051 30.4121 145.084Z" fill="#F6F7F7"/>
<path d="M27.4419 147.498C27.4406 147.498 27.4379 147.498 27.4365 147.498C27.4889 147.463 27.5411 147.428 27.5931 147.394C27.5944 147.394 27.5966 147.394 27.5979 147.394C27.5468 147.428 27.4947 147.463 27.4419 147.498Z" fill="#A5ADAD"/>
<path d="M23.3015 149.991C23.1888 149.991 23.0756 149.966 22.9697 149.914L30.5182 144.646C30.4957 144.735 30.476 144.814 30.459 144.884C30.44 144.963 30.4246 145.03 30.4133 145.084C30.3821 145.183 30.34 145.278 30.2877 145.365C30.0155 145.687 29.2535 146.259 28.3288 146.896C28.0925 147.059 27.8453 147.226 27.5933 147.394C27.5413 147.428 27.4891 147.463 27.4367 147.498C25.9778 148.467 24.3856 149.454 23.6943 149.879C23.5726 149.954 23.4373 149.991 23.3015 149.991Z" fill="#003C9C"/>
<path d="M29.7281 142.602C29.5416 142.602 29.3537 142.471 29.2935 142.28C29.2237 142.058 29.3341 141.793 29.5287 141.686L29.5282 141.686C29.5802 141.649 29.6416 141.633 29.7056 141.633C29.8827 141.633 30.0797 141.759 30.1526 141.926C30.2518 142.153 30.0844 142.492 29.8629 142.577C29.8192 142.594 29.7737 142.602 29.7281 142.602Z" fill="#003C9C"/>
<path d="M25.4906 146.871C25.443 146.882 25.3701 146.419 24.9753 146.077C24.5903 145.723 24.1496 145.728 24.1514 145.676C24.1494 145.654 24.2588 145.617 24.4406 145.637C24.621 145.655 24.869 145.747 25.0845 145.939C25.2994 146.131 25.4283 146.375 25.4764 146.561C25.5262 146.748 25.5106 146.869 25.4906 146.871Z" fill="#1D2A30"/>
<path d="M24.7086 147.801C24.6648 147.827 24.4837 147.504 24.1226 147.284C23.766 147.056 23.413 147.045 23.4124 146.992C23.4002 146.946 23.8008 146.87 24.2085 147.128C24.6189 147.381 24.7527 147.79 24.7086 147.801Z" fill="#1D2A30"/>
<path d="M26.8016 145.76C26.7576 145.788 26.4812 145.29 25.9478 144.896C25.4201 144.493 24.8869 144.383 24.8976 144.329C24.8953 144.283 25.4788 144.318 26.0457 144.748C26.6169 145.173 26.8429 145.746 26.8016 145.76Z" fill="#1D2A30"/>
<path d="M27.5016 143.364C27.4704 143.406 27.0981 143.114 26.5631 142.952C26.0299 142.783 25.5684 142.817 25.5637 142.763C25.5519 142.719 26.0372 142.598 26.6105 142.779C27.1851 142.954 27.5338 143.333 27.5016 143.364Z" fill="#1D2A30"/>
<path d="M28.0482 141.019C28.0143 141.059 27.6586 140.683 27.082 140.562C26.5079 140.428 26.0409 140.62 26.0249 140.569C26.0164 140.549 26.1215 140.47 26.3193 140.408C26.5154 140.347 26.8068 140.317 27.1166 140.386C27.4262 140.455 27.6821 140.606 27.8388 140.747C27.9968 140.887 28.0634 141.004 28.0482 141.019Z" fill="#1D2A30"/>
<path d="M27.1974 140.12C27.188 140.118 27.1956 140.006 27.2569 139.815C27.3181 139.626 27.4366 139.355 27.6653 139.082C27.7806 138.955 27.9092 138.786 28.143 138.736C28.2595 138.71 28.4101 138.771 28.4746 138.9C28.5392 139.026 28.5369 139.164 28.5103 139.292C28.3855 139.797 27.863 140.181 27.3101 140.113C26.7573 140.036 26.3451 139.582 26.2328 139.088C26.2123 138.963 26.2122 138.815 26.3016 138.695C26.3902 138.574 26.5555 138.559 26.6586 138.607C26.8733 138.701 26.9824 138.874 27.0901 139.01C27.2978 139.299 27.4043 139.573 27.4594 139.764C27.5146 139.957 27.5207 140.069 27.5111 140.071C27.4801 140.085 27.4119 139.629 26.9964 139.09C26.8898 138.964 26.7691 138.806 26.6122 138.749C26.5358 138.72 26.4608 138.736 26.4175 138.796C26.3739 138.853 26.3666 138.957 26.3866 139.057C26.484 139.462 26.8619 139.876 27.3301 139.934C27.7956 139.996 28.2544 139.658 28.3583 139.252C28.3819 139.154 28.3801 139.049 28.3443 138.978C28.3089 138.908 28.2387 138.872 28.1625 138.884C28.0019 138.909 27.8652 139.051 27.7528 139.17C27.3012 139.674 27.229 140.137 27.1974 140.12Z" fill="#1D2A30"/>
<path d="M32.2275 138.443C32.4956 137.495 32.6834 136.836 32.6834 136.836L32.2275 138.443Z" fill="#B2B1B0"/>
<path d="M26.8975 136.779L27.1215 135.637L27.3163 134.765L26.8975 136.779Z" fill="#A2A1A0"/>
<path d="M32.2268 138.443L26.7598 137.478L26.897 136.779L27.3158 134.764L32.6827 136.837C32.6827 136.837 32.4949 137.495 32.2267 138.443" fill="#003C9C"/>
<path d="M51.7441 137.737L51.2926 144.156C51.2926 144.156 57.273 146.799 57.2983 147.994L45.5693 147.51L45.887 137.479L51.7441 137.737Z" fill="#69A3FF"/>
<path d="M47.7784 144.419C47.5732 144.419 47.3717 144.251 47.3331 144.034C47.2923 143.803 47.4357 143.557 47.6421 143.479C47.6832 143.458 47.7277 143.449 47.7734 143.449C47.9638 143.449 48.1736 143.614 48.2295 143.807C48.2988 144.046 48.0896 144.358 47.8594 144.41C47.8325 144.416 47.8053 144.419 47.7784 144.419Z" fill="#003C9C"/>
<path d="M57.2991 147.994L45.792 147.52L57.2991 147.994C57.2961 147.856 57.2132 147.698 57.0686 147.526C57.0822 147.526 57.0967 147.526 57.1107 147.526C57.2281 147.641 57.3353 147.802 57.2991 147.994Z" fill="white"/>
<path d="M57.11 147.526C57.0961 147.526 57.0816 147.526 57.068 147.526C57.0324 147.485 56.9935 147.442 56.9512 147.398C56.9972 147.43 57.0547 147.473 57.11 147.526Z" fill="#A5ADAD"/>
<path d="M57.2983 147.994L45.7912 147.52L45.5693 147.51L45.6386 146.5L56.8583 147.342C56.8583 147.342 56.8966 147.362 56.951 147.399C56.9934 147.442 57.0323 147.485 57.0678 147.526C57.2124 147.698 57.2953 147.856 57.2983 147.994Z" fill="#003C9C"/>
<path d="M51.4862 144.101C51.4822 144.161 51.1948 144.177 50.9059 144.362C50.6124 144.538 50.4576 144.796 50.4056 144.77C50.3534 144.755 50.452 144.394 50.8058 144.178C51.1571 143.958 51.5007 144.045 51.4862 144.101Z" fill="#1D2A30"/>
<path d="M52.6962 144.693C52.7073 144.752 52.4555 144.845 52.2513 145.095C52.0405 145.338 51.9812 145.615 51.9243 145.61C51.8703 145.618 51.8437 145.259 52.1026 144.953C52.3594 144.646 52.6971 144.634 52.6962 144.693Z" fill="#1D2A30"/>
<path d="M53.3381 146.288C53.2855 146.299 53.2169 145.991 53.3764 145.663C53.5334 145.334 53.8084 145.214 53.8306 145.266C53.8612 145.317 53.6808 145.489 53.5538 145.76C53.4212 146.028 53.3952 146.284 53.3381 146.288Z" fill="#1D2A30"/>
<path d="M51.4348 142.625C51.4089 142.68 51.149 142.585 50.8246 142.595C50.4998 142.598 50.2436 142.704 50.2155 142.65C50.184 142.605 50.4383 142.389 50.8209 142.383C51.2031 142.374 51.4645 142.579 51.4348 142.625Z" fill="#1D2A30"/>
<path d="M45.8125 139.858L45.8514 138.536L45.8545 138.536L45.8125 139.858Z" fill="#B2B1B0"/>
<path d="M51.575 140.152L45.8125 139.858L45.8545 138.536L51.6538 139.008L51.575 140.152Z" fill="#003C9C"/>
<path d="M51.5044 141.329C51.504 141.354 51.2763 141.382 50.9169 141.301C50.738 141.261 50.5285 141.189 50.3098 141.075C50.2007 141.018 50.0891 140.95 49.9794 140.871C49.9266 140.831 49.8639 140.792 49.8073 140.717C49.7461 140.651 49.7162 140.487 49.7928 140.391C49.8565 140.298 49.9643 140.261 50.049 140.262C50.1355 140.263 50.2047 140.284 50.268 140.304C50.3975 140.343 50.5183 140.394 50.6283 140.452C50.8487 140.57 51.0257 140.715 51.1561 140.853C51.4188 141.132 51.5031 141.364 51.4833 141.375C51.4565 141.393 51.331 141.198 51.0622 140.965C50.9281 140.849 50.756 140.728 50.5499 140.629C50.4466 140.58 50.3348 140.537 50.2164 140.504C50.0935 140.464 49.9881 140.459 49.9538 140.517C49.9414 140.539 49.9396 140.547 49.9643 140.587C49.9899 140.624 50.0388 140.661 50.0907 140.7C50.1917 140.776 50.294 140.843 50.3941 140.901C50.595 141.018 50.7878 141.1 50.9537 141.156C51.2859 141.27 51.5065 141.296 51.5044 141.329Z" fill="#1D2A30"/>
<path d="M51.427 141.413C51.4066 141.421 51.3006 141.199 51.2941 140.803C51.2914 140.607 51.3192 140.37 51.3992 140.122C51.4397 139.998 51.4934 139.872 51.5627 139.749C51.6359 139.628 51.7258 139.466 51.9489 139.449C52.0651 139.449 52.1581 139.549 52.1878 139.633C52.2236 139.719 52.2285 139.792 52.2397 139.864C52.256 140.011 52.2483 140.154 52.2248 140.285C52.1782 140.55 52.0679 140.766 51.9504 140.921C51.7094 141.235 51.4678 141.297 51.4638 141.277C51.4459 141.245 51.6498 141.136 51.8364 140.832C51.9285 140.683 52.0126 140.484 52.0438 140.253C52.0592 140.138 52.062 140.015 52.0459 139.891C52.0323 139.758 51.9897 139.649 51.9424 139.661C51.884 139.657 51.7814 139.753 51.7295 139.857C51.6652 139.966 51.613 140.079 51.5716 140.19C51.49 140.412 51.4502 140.626 51.435 140.809C51.4057 141.174 51.4585 141.405 51.427 141.413Z" fill="#1D2A30"/>
<path d="M39.6007 68.5309C39.6007 68.5309 37.7386 68.6177 36.5114 75.364C35.2844 82.1106 25.8525 136.772 25.8525 136.772L32.6834 136.837L45.5699 84.8695L44.7137 138.444L51.6535 139.009C51.6535 139.009 56.8614 79.7397 56.9105 76.2911C56.9717 71.9917 54.6508 67.6426 54.6508 67.6426L39.6007 68.5309Z" fill="#002157"/>
<path d="M48.9889 67.9533C49.0325 67.9628 48.3236 71.8171 47.4059 76.5609C46.4879 81.3065 45.7086 85.1446 45.665 85.1347C45.6214 85.1252 46.3303 81.2716 47.2483 76.5264C48.166 71.7826 48.9456 67.9437 48.9889 67.9533Z" fill="#365462"/>
<path d="M50.0545 68.9152C50.0428 68.8984 50.2396 68.8363 50.4513 69.0378C50.5489 69.1348 50.6447 69.2962 50.6376 69.5026C50.6339 69.7117 50.4853 69.9152 50.2878 70.0013C50.0922 70.0914 49.8515 70.0625 49.7081 69.9195C49.5641 69.7808 49.5227 69.5947 49.5255 69.453C49.5379 69.1509 49.7171 69.0444 49.7199 69.0651C49.7415 69.0819 49.6195 69.2058 49.6392 69.4497C49.6494 69.5661 49.6973 69.7078 49.8039 69.7992C49.9071 69.8925 50.0749 69.9106 50.2254 69.8435C50.3756 69.7758 50.4806 69.6355 50.4896 69.4918C50.5029 69.3468 50.4408 69.2111 50.3697 69.122C50.2192 68.9369 50.0508 68.9432 50.0545 68.9152Z" fill="#365462"/>
<path d="M49.7585 71.5867C49.7541 71.5663 49.9507 71.5936 50.0579 71.8605C50.1052 71.9864 50.1268 72.1689 50.0387 72.3445C49.9525 72.524 49.7409 72.6301 49.5372 72.6111C49.333 72.5966 49.1389 72.4566 49.0802 72.2649C49.0187 72.0768 49.0666 71.9003 49.1318 71.7836C49.2764 71.538 49.4745 71.543 49.4674 71.5627C49.4773 71.5886 49.3219 71.6291 49.2322 71.8405C49.1905 71.9414 49.1686 72.0821 49.2183 72.208C49.2638 72.3339 49.3963 72.4273 49.5496 72.4405C49.7028 72.4526 49.8472 72.3823 49.9105 72.2656C49.9779 72.1492 49.9769 72.0065 49.9504 71.9C49.8926 71.6764 49.7449 71.6107 49.7585 71.5867Z" fill="#365462"/>
<path d="M43.2139 68.9831C43.2232 68.986 43.1988 69.1077 43.1324 69.3207C43.0669 69.5341 42.9513 69.8365 42.7724 70.1912C42.4201 70.899 41.7632 71.8116 40.7901 72.4935C39.817 73.176 38.7695 73.4584 38.0193 73.5238C37.6422 73.559 37.3356 73.5524 37.1255 73.5327C36.9154 73.5133 36.8008 73.4893 36.8018 73.4788C36.8032 73.4469 37.2684 73.5028 38.0069 73.4035C38.7409 73.3085 39.7549 73.0146 40.7017 72.3508C41.6482 71.6871 42.3021 70.8119 42.6732 70.1317C43.0505 69.4489 43.1855 68.9719 43.2139 68.9831Z" fill="#365462"/>
<path d="M56.505 73.7781C56.4986 73.7876 56.4263 73.7406 56.3002 73.6466C56.1719 73.5555 56.0008 73.402 55.8045 73.1955C55.4112 72.7853 54.9474 72.1179 54.6405 71.2766C54.3371 70.434 54.2602 69.6079 54.2932 69.0227C54.3084 68.7298 54.3383 68.4934 54.3757 68.3346C54.41 68.1748 54.4341 68.0884 54.4449 68.0907C54.474 68.0963 54.4082 68.4507 54.4069 69.0256C54.4039 69.5993 54.4962 70.3965 54.7907 71.2151C55.0889 72.0321 55.523 72.6893 55.8874 73.112C56.2507 73.5374 56.523 73.7531 56.505 73.7781Z" fill="#365462"/>
<path d="M36.8848 55.529L39.9198 55.7075C40.1116 56.7543 40.7779 58.3546 40.7779 58.3546C43.2206 53.8432 45.1148 47.7987 45.5851 45.3696C45.5165 45.127 45.4352 44.8584 45.3342 44.5586C45.2174 44.2121 45.3175 43.5565 45.3725 43.1923C45.4547 42.6515 45.5969 41.9236 45.6395 41.587C45.7696 40.5603 45.925 40.3992 46.2615 40.5153C46.7195 40.6731 46.0739 43.3981 46.4491 43.4572C46.6509 43.4888 46.8971 42.5555 46.9688 41.7895C47.0402 41.0235 47.3659 38.6673 47.6038 38.5102C47.9527 38.2801 48.2567 38.6443 48.1687 39.407C48.0794 40.1789 47.9669 42.4812 48.3476 42.5124C48.7224 42.543 49.0369 38.6368 49.0369 38.6368C49.0369 38.6368 48.9779 37.7866 49.4183 37.807C50.213 37.8438 49.5919 41.9621 49.5239 42.3523C49.4763 42.6235 49.8892 42.6732 49.9256 42.3789C49.963 42.0755 50.1546 38.4724 50.9636 38.5013C51.5847 38.5237 50.4828 41.895 50.8313 42.6768C51.1799 43.4579 51.4221 40.0221 52.0151 40.0695C52.2357 40.0872 52.3989 40.1332 51.9931 42.0775C51.7753 43.1226 51.1351 45.0438 50.5755 46.6346C49.6361 52.0262 45.5128 69.2734 39.0483 66.1161C35.4311 64.3497 33.7432 55.603 33.7432 55.603L36.8848 55.529Z" fill="#FCD5B5"/>
<path d="M50.5764 46.6377C50.573 46.6364 50.5835 46.5963 50.607 46.5197C50.6348 46.4325 50.6706 46.3208 50.7151 46.1804C50.8162 45.8694 50.9577 45.4338 51.1381 44.8789C51.3183 44.3127 51.5395 43.6197 51.7595 42.8054C51.8723 42.3988 51.9635 41.9582 52.0488 41.4858C52.0898 41.2501 52.1319 41.0072 52.1578 40.7576C52.1686 40.6337 52.181 40.5061 52.1739 40.3838C52.1656 40.2556 52.147 40.1508 52.0518 40.1491C51.9536 40.1208 51.8875 40.2073 51.8201 40.3161C51.758 40.4256 51.7098 40.5518 51.6665 40.6807C51.58 40.9394 51.5123 41.2153 51.4453 41.4973C51.3779 41.7794 51.3158 42.0694 51.2348 42.3649C51.1863 42.5142 51.1647 42.6581 51.0498 42.8186C51.0281 42.838 51.0087 42.8636 50.9651 42.8728C50.9175 42.8856 50.882 42.8662 50.8489 42.8449C50.8044 42.8028 50.7831 42.7604 50.7636 42.7209C50.7287 42.6378 50.7074 42.5526 50.6984 42.4701C50.6431 41.8103 50.7843 41.1725 50.881 40.5104C50.9342 40.1804 50.9904 39.8463 51.0312 39.5081C51.051 39.3394 51.0677 39.1688 51.0695 39.0008C51.0754 38.845 51.0498 38.6346 50.9855 38.6046C50.9064 38.5731 50.7633 38.6684 50.6876 38.8078C50.6026 38.9449 50.5393 39.1076 50.4855 39.2737C50.3783 39.6083 50.3082 39.9647 50.2479 40.3257C50.1889 40.6876 50.1428 41.0565 50.1048 41.4303C50.0878 41.6173 50.0705 41.8057 50.0532 41.9947L50.0298 42.2801C50.0233 42.3573 50.0233 42.5188 49.9071 42.6115C49.7995 42.6973 49.6562 42.7061 49.5415 42.6269C49.4841 42.5875 49.4393 42.5142 49.4306 42.4399C49.4232 42.402 49.4297 42.3675 49.4321 42.3347L49.4439 42.264C49.4711 42.0733 49.4989 41.882 49.5264 41.6893C49.5774 41.3034 49.6216 40.9131 49.6568 40.5196C49.6914 40.1261 49.717 39.7286 49.7229 39.3299C49.7235 38.9354 49.7207 38.5218 49.6138 38.1605C49.5789 38.0507 49.5218 37.9511 49.4581 37.9225C49.3926 37.8972 49.298 37.9228 49.2495 37.9932C49.1423 38.1533 49.1247 38.4173 49.133 38.6319L49.1337 38.6425L49.133 38.6484C49.0669 39.4209 48.9878 40.18 48.8834 40.9263C48.8296 41.2994 48.7721 41.6689 48.6841 42.0339C48.6621 42.1252 48.6359 42.2166 48.6056 42.3077C48.5645 42.3988 48.553 42.4915 48.4304 42.5917C48.3244 42.6457 48.2456 42.5842 48.2036 42.5385C48.1584 42.4882 48.1402 42.4385 48.1192 42.3899C48.0837 42.2932 48.0657 42.1999 48.05 42.1065C47.9517 41.3655 47.9922 40.6524 48.0314 39.9532C48.0444 39.6017 48.1251 39.2539 48.0815 38.9456C48.0608 38.7927 48.0046 38.6392 47.9091 38.5711C47.8621 38.5382 47.8087 38.5307 47.7509 38.5451C47.7218 38.5547 47.6931 38.5655 47.6647 38.5839C47.6365 38.6083 47.6424 38.5991 47.6211 38.6405C47.5009 38.9091 47.4425 39.2487 47.3776 39.5561C47.3167 39.8703 47.2648 40.1833 47.2175 40.4923C47.1706 40.801 47.1289 41.1061 47.0918 41.4066C47.0535 41.7048 47.0343 42.0069 46.979 42.3005C46.9268 42.5931 46.8631 42.8778 46.763 43.1506C46.7377 43.219 46.7086 43.2864 46.6737 43.3528C46.6304 43.4146 46.606 43.4951 46.4877 43.5336C46.42 43.5533 46.3613 43.5044 46.331 43.4633C46.3051 43.4209 46.2924 43.3804 46.2822 43.3416C46.2664 43.266 46.26 43.1934 46.2575 43.1227C46.2507 42.5625 46.3289 42.0486 46.3548 41.5526C46.3696 41.3067 46.3802 41.0634 46.3533 40.8385C46.3394 40.733 46.3075 40.6094 46.251 40.5847C46.1682 40.5495 46.0613 40.5311 45.9992 40.5788C45.8626 40.6837 45.815 40.924 45.7705 41.1166C45.7266 41.3201 45.7068 41.5217 45.6719 41.7159C45.5434 42.4938 45.4071 43.1615 45.341 43.7072C45.311 43.9801 45.2987 44.2263 45.3311 44.4314C45.3741 44.6303 45.4368 44.8065 45.4729 44.9446C45.5094 45.0758 45.5384 45.1803 45.5616 45.2625C45.5805 45.3342 45.5885 45.3713 45.5857 45.3723C45.5826 45.3733 45.5684 45.3381 45.5434 45.2684C45.5162 45.1879 45.4813 45.0856 45.4377 44.9571C45.3948 44.8171 45.3302 44.6569 45.2773 44.4423C45.2372 44.2269 45.2446 43.9761 45.2696 43.699C45.3255 43.1434 45.4504 42.4803 45.569 41.7012C45.6018 41.5075 45.6194 41.3014 45.6617 41.0923C45.684 40.9874 45.7056 40.8809 45.743 40.7737C45.7822 40.6702 45.8243 40.5505 45.9367 40.472C46.0563 40.3927 46.1892 40.4217 46.3014 40.467C46.4463 40.5551 46.4515 40.7031 46.4769 40.8191C46.5084 41.065 46.4985 41.3106 46.4861 41.5614C46.4636 42.0605 46.3904 42.5848 46.4009 43.1158C46.4036 43.1812 46.4107 43.2453 46.4231 43.3038C46.4364 43.3679 46.467 43.3923 46.4608 43.3801C46.4716 43.3824 46.5189 43.3255 46.5455 43.2736C46.5745 43.2174 46.6008 43.1562 46.624 43.0924C46.716 42.836 46.7775 42.5556 46.8267 42.2709C46.8786 41.9865 46.8956 41.6903 46.9333 41.3852C46.9688 41.0824 47.0093 40.7757 47.055 40.4647C47.1011 40.1537 47.1517 39.8384 47.212 39.5199C47.2806 39.1994 47.3241 38.8828 47.4706 38.5494C47.4796 38.5159 47.5432 38.4409 47.5791 38.4228C47.618 38.3979 47.6622 38.3795 47.7089 38.365C47.8031 38.3384 47.9187 38.3532 48.0043 38.4146C48.1742 38.5419 48.228 38.7407 48.2564 38.9166C48.282 39.0971 48.2734 39.2799 48.2542 39.4538C48.236 39.6225 48.2227 39.7944 48.2113 39.9667C48.1736 40.6547 48.1381 41.375 48.2329 42.0726C48.2471 42.1575 48.2647 42.2433 48.2922 42.3159C48.3061 42.3501 48.3225 42.3863 48.3383 42.4014L48.3534 42.4142L48.3547 42.4145L48.3553 42.4155C48.3497 42.4928 48.3544 42.432 48.3531 42.4471L48.3404 42.4188C48.3565 42.405 48.406 42.3146 48.4297 42.2383C48.4569 42.1561 48.4817 42.071 48.5024 41.9836C48.5867 41.6328 48.6433 41.2656 48.6961 40.8964C48.7987 40.1567 48.8772 39.3983 48.9424 38.6309V38.6471C48.9387 38.3942 48.9347 38.1293 49.0987 37.8673C49.1945 37.7381 49.3673 37.668 49.5298 37.7331C49.6905 37.813 49.7498 37.9659 49.7949 38.0928C49.9176 38.5136 49.9136 38.9258 49.9145 39.3328C49.9083 39.7398 49.882 40.1412 49.8468 40.5387C49.811 40.9361 49.7662 41.329 49.7143 41.7179C49.6861 41.9119 49.658 42.1055 49.6299 42.2982C49.607 42.4205 49.6126 42.4244 49.6469 42.4606C49.684 42.4905 49.7557 42.4859 49.7906 42.4546C49.8301 42.4264 49.8348 42.3692 49.8431 42.2623L49.8669 41.977C49.8848 41.7866 49.9024 41.5973 49.9204 41.4089C49.9593 41.0318 50.0066 40.659 50.0671 40.2918C50.1299 39.9249 50.2016 39.5623 50.315 39.2112C50.3727 39.0363 50.4392 38.8627 50.5399 38.7013C50.5912 38.6214 50.6508 38.5419 50.7383 38.4833C50.8276 38.4288 50.9255 38.3791 51.0596 38.4337C51.1863 38.5077 51.2083 38.6326 51.228 38.7237C51.2413 38.8193 51.2472 38.9127 51.2444 39.0028C51.2416 39.1839 51.2234 39.3588 51.2027 39.5317C51.1598 39.8766 51.102 40.2113 51.0473 40.5413C50.9466 41.1962 50.8075 41.8481 50.8557 42.4468C50.8634 42.5201 50.8817 42.5875 50.9051 42.647C50.9194 42.6769 50.9351 42.7019 50.945 42.7127L50.9376 42.7272L50.9342 42.7255L50.9364 42.7038C51.0012 42.6187 51.0473 42.454 51.0878 42.3182C51.1678 42.0312 51.2324 41.7409 51.3016 41.4582C51.3711 41.1752 51.4413 40.897 51.533 40.6291C51.5794 40.4953 51.6301 40.3635 51.7017 40.2389C51.7407 40.1777 51.779 40.1149 51.8423 40.0646C51.8705 40.0377 51.9122 40.0186 51.9527 40.0064C52.0009 39.9985 52.0398 39.9999 52.0713 40.0061C52.1442 40.0094 52.2425 40.0771 52.2666 40.1583C52.2966 40.2353 52.3031 40.3072 52.3061 40.3763C52.3126 40.5147 52.2981 40.6445 52.2861 40.7734C52.257 41.0295 52.2122 41.2738 52.1683 41.5108C52.0784 41.9835 51.9808 42.43 51.8627 42.837C51.6316 43.6526 51.3999 44.3423 51.2086 44.9052C51.0161 45.4677 50.86 45.9013 50.7516 46.1945C50.6994 46.3319 50.6576 46.4417 50.6255 46.5269C50.5958 46.6012 50.5792 46.6387 50.5764 46.6377Z" fill="#F6865E"/>
<path d="M33.708 55.9026C34.2951 58.1065 35.4419 61.5117 36.675 65.1013C36.8534 65.6204 37.5318 65.6543 37.7537 65.1549L40.777 58.3547C40.777 58.3547 40.049 52.7683 40.1107 52.9656C40.1724 53.1628 33.8734 53.6885 33.8734 53.6885L33.708 55.9026Z" fill="#0565FF"/>
<path d="M40.5177 54.8065C40.5246 54.8337 40.1421 54.9514 39.5438 55.1944C38.9453 55.4364 38.136 55.821 37.301 56.3582C36.4669 56.898 35.772 57.4838 35.294 57.9365C34.8149 58.3889 34.5397 58.695 34.5202 58.6759C34.5122 58.668 34.5727 58.5835 34.6897 58.4369C34.8055 58.2896 34.985 58.0871 35.2167 57.8478C35.6793 57.3681 36.3724 56.7586 37.2175 56.2119C38.0635 55.6675 38.8919 55.2953 39.5053 55.0806C39.8122 54.9725 40.0639 54.8965 40.2404 54.8558C40.4165 54.813 40.515 54.795 40.5177 54.8065Z" fill="#FCFDFD"/>
<path d="M41.7157 56.5025C41.6996 56.5147 41.4938 56.2566 41.2114 55.8003C40.9287 55.3447 40.5787 54.6835 40.2774 53.9123C39.9774 53.1401 39.7853 52.4096 39.6821 51.8747C39.5782 51.3395 39.552 51.0022 39.5713 50.9992C39.5958 50.9946 39.6616 51.3237 39.7927 51.8468C39.9233 52.3695 40.13 53.0845 40.4262 53.8469C40.7235 54.6083 41.0529 55.2687 41.3084 55.7369C41.5637 56.205 41.7358 56.4871 41.7157 56.5025Z" fill="#1D2A30"/>
<path d="M43.7316 26.3846C42.6742 28.2033 42.4496 30.5555 43.1411 32.5681C43.4517 33.4709 43.9436 34.3634 43.8537 35.3217C43.7613 36.3034 43.0614 37.2308 43.3086 38.1805C43.4551 38.742 43.9081 39.1586 44.0817 39.7112C44.2857 40.3592 44.0731 41.061 43.9761 41.7373C43.7289 43.459 44.2461 45.1902 44.3744 46.9269C44.5026 48.6637 44.062 50.6964 42.6063 51.4538C42.1635 51.684 41.5853 51.7504 41.2173 51.3993C40.7501 50.9535 40.8802 50.153 41.0081 49.4948C42.2874 42.9139 38.3355 36.5032 39.2379 29.85C39.3825 28.7835 39.9425 26.9741 40.6642 26.2278C41.3857 25.4819 43.3815 25.5726 44.0644 26.3597" fill="#1D2A30"/>
<path d="M37.6442 45.4568C37.6312 45.4457 37.8297 45.2201 38.108 44.7536C38.385 44.2904 38.7332 43.5672 38.9153 42.601C39.0035 42.1184 39.0426 41.5809 39.0104 41.0019C38.9867 40.4233 38.9101 39.8003 38.9468 39.1343C38.9596 38.8009 39.0266 38.4617 39.1241 38.1267C39.2336 37.7963 39.3759 37.4721 39.5484 37.1611C39.8942 36.5391 40.3322 35.9599 40.7328 35.3412C41.1335 34.7244 41.466 34.0712 41.5738 33.3811C41.682 32.6911 41.5652 32.0076 41.466 31.3639C41.3588 30.7196 41.2852 30.0851 41.3294 29.4956C41.3646 28.9065 41.4756 28.3657 41.6257 27.8913C41.9292 26.9396 42.3778 26.2653 42.718 25.8455C42.8892 25.6345 43.0342 25.4816 43.1386 25.3863C43.2418 25.2889 43.2974 25.2403 43.3011 25.2449C43.3132 25.258 43.0929 25.4592 42.7663 25.8883C42.4443 26.3163 42.0179 26.9909 41.7339 27.9291C41.5933 28.397 41.4916 28.9279 41.4626 29.5035C41.4252 30.0808 41.5012 30.6923 41.6121 31.3373C41.7144 31.9797 41.8405 32.6796 41.7293 33.4081C41.6177 34.1363 41.271 34.8138 40.8656 35.4378C40.4594 36.0644 40.0236 36.6397 39.6841 37.2466C39.5148 37.5497 39.3766 37.8624 39.2696 38.1789C39.1755 38.4991 39.1091 38.821 39.0946 39.1445C39.0547 39.7895 39.1251 40.4105 39.1439 40.996C39.1705 41.5825 39.1241 42.1358 39.0268 42.6253C38.8267 43.6076 38.4565 44.3332 38.1604 44.7905C38.0119 45.0206 37.8828 45.1879 37.7916 45.2977C37.6988 45.4062 37.6481 45.4608 37.6442 45.4568Z" fill="#365462"/>
<path d="M34.7153 45.9491C34.7105 45.9462 34.7437 45.8702 34.8113 45.7286C34.8872 45.5727 34.9869 45.3676 35.1116 45.1115C35.3701 44.5753 35.7575 43.804 36.1382 42.8079C36.5112 41.8154 36.8813 40.5721 36.8927 39.1545C36.8947 38.8018 36.8706 38.4405 36.8172 38.0759C36.764 37.711 36.6843 37.3382 36.6326 36.9489C36.583 36.5613 36.5592 36.1481 36.656 35.7401C36.7517 35.3305 36.9935 34.9666 37.2848 34.6845C37.8673 34.1214 38.5699 33.7541 38.933 33.0947C39.3049 32.4464 39.387 31.686 39.4809 30.9864C39.5613 30.2792 39.6887 29.5984 39.9062 29.0001C40.1165 28.3988 40.3973 27.8764 40.6902 27.4316C41.2802 26.5381 41.9362 25.9756 42.408 25.6409C42.6457 25.4739 42.8382 25.3575 42.9735 25.2888C43.1076 25.2184 43.179 25.1836 43.1815 25.1892C43.1898 25.2056 42.9046 25.3493 42.4436 25.6958C41.9872 26.0439 41.3519 26.613 40.7839 27.5006C40.5016 27.9425 40.2318 28.4586 40.0314 29.0497C39.8235 29.6398 39.7048 30.2983 39.6278 31.0074C39.5367 31.707 39.4611 32.4878 39.0675 33.1824C38.6739 33.8922 37.9465 34.27 37.3943 34.8101C37.116 35.0807 36.8998 35.4091 36.8108 35.7825C36.7218 36.1557 36.7412 36.5479 36.7888 36.9259C36.838 37.306 36.9162 37.6781 36.9692 38.0512C37.0223 38.4247 37.045 38.7952 37.041 39.1555C37.0208 40.604 36.6327 41.8592 36.2434 42.854C35.8461 43.852 35.4424 44.6161 35.1666 45.1434C35.0309 45.3929 34.9223 45.5931 34.8396 45.7453C34.7629 45.8818 34.7202 45.9518 34.7153 45.9491Z" fill="#365462"/>
<path d="M136.951 138.843C136.947 138.841 136.966 138.794 137.005 138.704C137.048 138.606 137.106 138.474 137.18 138.307C137.328 137.956 137.522 137.424 137.694 136.717C138.035 135.303 138.153 133.143 137.65 130.577C137.417 129.292 137.04 127.914 136.58 126.453C136.127 124.99 135.601 123.437 135.171 121.758C134.746 120.083 134.411 118.266 134.475 116.36C134.54 114.45 135.072 112.545 135.656 110.647C136.239 108.747 136.842 106.889 137.023 105.021C137.227 103.156 136.852 101.325 136.053 99.8252C135.28 98.3093 134.307 97.0124 133.579 95.6691C132.839 94.3308 132.376 92.9543 132.091 91.6742C131.538 89.0931 131.732 86.9178 131.997 85.4848C132.284 84.0435 132.604 83.2986 132.604 83.2986C132.607 83.2999 132.595 83.3492 132.568 83.4439C132.538 83.5474 132.497 83.6862 132.445 83.863C132.338 84.2309 132.199 84.7809 132.068 85.4992C131.826 86.9293 131.655 89.0895 132.218 91.6423C132.51 92.9083 132.974 94.2667 133.711 95.5866C134.438 96.9141 135.415 98.2051 136.204 99.7391C137.019 101.256 137.411 103.147 137.204 105.041C137.022 106.941 136.414 108.81 135.832 110.708C135.248 112.604 134.723 114.49 134.657 116.367C134.59 118.244 134.918 120.044 135.336 121.711C135.758 123.381 136.278 124.935 136.726 126.402C137.18 127.868 137.552 129.257 137.779 130.551C138.268 133.136 138.129 135.318 137.764 136.736C137.579 137.446 137.374 137.976 137.213 138.324C137.133 138.488 137.069 138.617 137.021 138.713C136.977 138.801 136.953 138.845 136.951 138.843Z" fill="#1D2A30"/>
<path d="M134.568 96.9941C134.568 96.9941 133.089 91.9629 135.742 89.017C135.835 88.9137 135.999 88.9624 136.023 89.1034C136.165 89.9342 136.342 92.4649 134.568 96.9941Z" fill="#8DCC8B"/>
<path d="M135.454 90.6941C135.479 90.699 135.437 91.0531 135.355 91.6222C135.257 92.2613 135.143 93.0118 135.017 93.8412C134.893 94.6703 134.781 95.4209 134.686 96.06C134.605 96.6281 134.557 96.9808 134.53 96.9785C134.505 96.9765 134.508 96.6185 134.556 96.0432C134.605 95.4682 134.7 94.6776 134.834 93.8093C134.968 92.9414 135.11 92.16 135.226 91.5965C135.341 91.0334 135.429 90.6885 135.454 90.6941Z" fill="#1D2A30"/>
<path d="M136.305 108.86C136.305 108.86 137.209 103.678 140.849 102.394C140.976 102.349 141.1 102.474 141.059 102.61C140.819 103.415 139.863 105.74 136.305 108.86Z" fill="#8DCC8B"/>
<path d="M139.859 103.732C139.878 103.749 139.686 104.041 139.363 104.503C138.996 105.019 138.565 105.626 138.089 106.296C137.615 106.968 137.186 107.575 136.821 108.093C136.5 108.555 136.302 108.842 136.279 108.827C136.259 108.813 136.418 108.498 136.714 108.013C137.009 107.53 137.441 106.878 137.941 106.177C138.441 105.476 138.91 104.856 139.26 104.416C139.61 103.975 139.839 103.714 139.859 103.732Z" fill="#1D2A30"/>
<path d="M135.322 121.862C135.322 121.862 134.773 116.624 137.905 114.27C138.015 114.188 138.167 114.269 138.166 114.412C138.155 115.256 137.875 117.777 135.322 121.862Z" fill="#8DCC8B"/>
<path d="M137.321 115.857C137.345 115.868 137.24 116.207 137.057 116.748C136.847 117.356 136.601 118.07 136.328 118.858C136.058 119.647 135.813 120.361 135.605 120.969C135.424 121.51 135.313 121.846 135.287 121.839C135.264 121.832 135.33 121.481 135.48 120.926C135.632 120.372 135.867 119.615 136.154 118.79C136.441 117.965 136.721 117.226 136.935 116.697C137.149 116.168 137.298 115.847 137.321 115.857Z" fill="#1D2A30"/>
<path d="M138.064 134.94C138.064 134.94 137.691 129.684 140.901 127.452C141.013 127.374 141.163 127.461 141.156 127.604C141.118 128.447 140.753 130.955 138.064 134.94Z" fill="#8DCC8B"/>
<path d="M140.264 129.016C140.287 129.027 140.171 129.362 139.97 129.896C139.739 130.496 139.469 131.2 139.17 131.977C138.874 132.755 138.605 133.459 138.377 134.059C138.178 134.593 138.055 134.925 138.029 134.916C138.007 134.908 138.085 134.56 138.254 134.011C138.423 133.463 138.684 132.715 138.999 131.902C139.313 131.088 139.618 130.361 139.85 129.841C140.082 129.319 140.24 129.005 140.264 129.016Z" fill="#1D2A30"/>
<path d="M132.443 92.5742C132.443 92.5742 128.051 90.1346 127.965 86.0558C127.962 85.9127 128.11 85.8237 128.221 85.9052C128.873 86.3852 130.682 88.0394 132.443 92.5742Z" fill="#8DCC8B"/>
<path d="M128.878 87.4567C128.899 87.4415 129.104 87.7236 129.425 88.1875C129.782 88.7121 130.2 89.3282 130.663 90.009C131.127 90.6879 131.548 91.3023 131.905 91.8257C132.226 92.2879 132.426 92.5733 132.406 92.592C132.387 92.6088 132.151 92.354 131.802 91.9118C131.455 91.4687 130.995 90.8385 130.513 90.1241C130.029 89.4107 129.61 88.7513 129.317 88.2667C129.024 87.7815 128.856 87.4721 128.878 87.4567Z" fill="#1D2A30"/>
<path d="M137.16 103.379C137.16 103.379 132.637 101.227 132.318 97.1612C132.307 97.0189 132.45 96.9202 132.565 96.9945C133.244 97.4318 135.144 98.9661 137.16 103.379Z" fill="#8DCC8B"/>
<path d="M133.307 98.5008C133.327 98.4841 133.549 98.752 133.895 99.1945C134.281 99.6952 134.734 100.283 135.235 100.933C135.737 101.581 136.191 102.166 136.579 102.666C136.925 103.106 137.141 103.378 137.122 103.398C137.105 103.416 136.854 103.177 136.481 102.758C136.108 102.339 135.614 101.739 135.091 101.057C134.568 100.377 134.112 99.7455 133.792 99.2803C133.472 98.8154 133.287 98.5169 133.307 98.5008Z" fill="#1D2A30"/>
<path d="M134.556 115.431C134.556 115.431 131.451 111.323 132.907 107.55C132.958 107.417 133.128 107.399 133.198 107.521C133.616 108.239 134.65 110.525 134.556 115.431Z" fill="#8DCC8B"/>
<path d="M133.216 109.222C133.241 109.217 133.323 109.563 133.442 110.125C133.571 110.758 133.723 111.501 133.891 112.322C134.06 113.142 134.214 113.884 134.345 114.516C134.465 115.076 134.541 115.423 134.515 115.432C134.492 115.439 134.371 115.105 134.218 114.55C134.066 113.997 133.883 113.224 133.71 112.363C133.535 111.503 133.399 110.721 133.313 110.151C133.227 109.582 133.191 109.227 133.216 109.222Z" fill="#1D2A30"/>
<path d="M137.632 129.613C137.632 129.613 133.144 127.381 132.889 123.31C132.88 123.167 133.025 123.072 133.139 123.148C133.811 123.597 135.686 125.165 137.632 129.613Z" fill="#8DCC8B"/>
<path d="M133.858 124.668C133.879 124.652 134.096 124.924 134.435 125.373C134.813 125.881 135.257 126.476 135.747 127.134C136.239 127.791 136.684 128.385 137.063 128.891C137.403 129.338 137.615 129.614 137.595 129.634C137.577 129.651 137.331 129.408 136.964 128.982C136.598 128.556 136.114 127.948 135.602 127.257C135.089 126.567 134.643 125.927 134.33 125.457C134.018 124.986 133.838 124.685 133.858 124.668Z" fill="#1D2A30"/>
<path d="M146.573 108.889C146.578 108.889 146.58 108.928 146.579 109.005C146.577 109.096 146.574 109.207 146.571 109.342C146.558 109.658 146.54 110.086 146.518 110.62C146.46 111.744 146.38 113.311 146.283 115.184L146.283 115.189L146.282 115.195C145.962 117.103 145.048 119.217 143.822 121.269C142.922 122.781 141.979 124.156 141.166 125.435C140.347 126.71 139.656 127.891 139.174 128.937C138.69 129.982 138.408 130.88 138.243 131.507C138.164 131.822 138.105 132.067 138.071 132.236C138.034 132.403 138.011 132.491 138.005 132.489C137.998 132.488 138.009 132.398 138.034 132.228C138.056 132.057 138.104 131.808 138.173 131.488C138.317 130.851 138.583 129.938 139.056 128.876C139.527 127.813 140.212 126.616 141.024 125.333C141.832 124.046 142.77 122.669 143.665 121.164C144.885 119.122 145.793 117.04 146.126 115.163L146.124 115.174C146.248 113.301 146.352 111.736 146.426 110.613C146.466 110.081 146.499 109.654 146.523 109.339C146.535 109.204 146.546 109.094 146.555 109.003C146.563 108.928 146.569 108.888 146.573 108.889Z" fill="#1D2A30"/>
<path d="M143.901 120.877C143.901 120.877 145.801 116.009 143.41 112.82C143.327 112.708 143.159 112.741 143.123 112.879C142.911 113.693 142.52 116.196 143.901 120.877Z" fill="#F03658"/>
<path d="M143.555 114.517C143.58 114.515 143.638 114.866 143.705 115.438C143.773 116.01 143.848 116.803 143.907 117.68C143.967 118.557 143.994 119.354 143.994 119.931C143.993 120.509 143.965 120.865 143.941 120.865C143.914 120.865 143.895 120.509 143.863 119.936C143.822 119.29 143.775 118.532 143.722 117.694C143.667 116.856 143.617 116.098 143.575 115.451C143.541 114.877 143.529 114.52 143.555 114.517Z" fill="#1D2A30"/>
<path d="M143.901 120.877C143.12 118.23 142.906 116.28 142.905 114.937C142.905 113.905 143.031 113.233 143.123 112.879C143.144 112.798 143.211 112.753 143.28 112.753C143.327 112.753 143.376 112.774 143.41 112.82C144.333 114.05 144.616 115.53 144.617 116.884C144.617 118.623 144.151 120.155 143.971 120.682C143.983 120.522 143.993 120.263 143.994 119.931C143.994 119.354 143.966 118.557 143.907 117.68C143.847 116.802 143.772 116.01 143.705 115.438C143.638 114.868 143.58 114.517 143.554 114.517H143.554C143.529 114.52 143.541 114.877 143.574 115.451C143.617 116.097 143.667 116.856 143.722 117.694C143.774 118.531 143.822 119.289 143.863 119.935C143.888 120.384 143.905 120.699 143.923 120.816C143.909 120.856 143.901 120.877 143.901 120.877Z" fill="#2C612B"/>
<path d="M143.924 120.815C143.905 120.699 143.888 120.384 143.863 119.935C143.822 119.289 143.775 118.531 143.722 117.694C143.667 116.856 143.617 116.097 143.575 115.451C143.541 114.876 143.529 114.52 143.555 114.517H143.555C143.581 114.517 143.638 114.868 143.705 115.438C143.773 116.01 143.848 116.802 143.907 117.68C143.967 118.557 143.994 119.354 143.994 119.931C143.993 120.263 143.984 120.521 143.971 120.682C143.952 120.738 143.936 120.783 143.924 120.815Z" fill="#161C1E"/>
<path d="M138.012 132.608C138.012 132.608 139.536 127.592 136.909 124.62C136.817 124.516 136.653 124.563 136.628 124.704C136.478 125.533 136.279 128.062 138.012 132.608Z" fill="#F03658"/>
<path d="M137.182 126.299C137.208 126.294 137.292 126.64 137.403 127.204C137.513 127.768 137.648 128.551 137.774 129.421C137.901 130.29 137.989 131.082 138.033 131.658C138.075 132.233 138.075 132.591 138.051 132.593C138.024 132.595 137.978 132.242 137.902 131.673C137.813 131.033 137.707 130.281 137.591 129.451C137.472 128.621 137.365 127.869 137.274 127.229C137.196 126.659 137.157 126.305 137.182 126.299Z" fill="#1D2A30"/>
<path d="M138.012 132.608C136.8 129.429 136.533 127.237 136.533 125.922C136.533 125.356 136.583 124.953 136.627 124.704C136.643 124.615 136.714 124.564 136.788 124.564C136.831 124.564 136.875 124.581 136.909 124.62C138.125 125.996 138.452 127.81 138.452 129.361C138.452 130.762 138.185 131.949 138.067 132.407C138.067 132.246 138.057 131.987 138.033 131.657C137.989 131.082 137.901 130.29 137.774 129.421C137.648 128.551 137.513 127.768 137.403 127.204C137.293 126.644 137.209 126.299 137.183 126.299C137.183 126.299 137.182 126.299 137.182 126.299C137.157 126.304 137.196 126.658 137.274 127.228C137.365 127.869 137.472 128.62 137.591 129.45C137.707 130.281 137.813 131.033 137.902 131.673C137.962 132.117 138.003 132.43 138.03 132.544C138.019 132.586 138.012 132.608 138.012 132.608Z" fill="#2C612B"/>
<path d="M138.03 132.544C138.003 132.43 137.962 132.117 137.902 131.673C137.813 131.032 137.707 130.281 137.591 129.45C137.472 128.62 137.365 127.869 137.274 127.228C137.196 126.658 137.157 126.304 137.182 126.299C137.182 126.299 137.183 126.299 137.183 126.299C137.209 126.299 137.293 126.644 137.403 127.204C137.513 127.768 137.648 128.551 137.775 129.42C137.901 130.29 137.989 131.082 138.033 131.657C138.057 131.987 138.067 132.245 138.067 132.406C138.052 132.464 138.04 132.51 138.03 132.544Z" fill="#161C1E"/>
<path d="M146.321 114.928C146.321 114.928 150.38 111.905 149.971 107.848C149.956 107.706 149.798 107.638 149.699 107.734C149.109 108.3 147.517 110.189 146.321 114.928Z" fill="#F03658"/>
<path d="M146.321 114.928C147.517 110.189 149.109 108.3 149.699 107.734C149.73 107.703 149.769 107.689 149.806 107.689C149.885 107.689 149.961 107.752 149.971 107.848C149.99 108.043 150 108.234 150 108.423C150.001 112.187 146.321 114.928 146.321 114.928Z" fill="#2C612B"/>
<path d="M149.237 109.363C149.26 109.375 149.131 109.705 148.9 110.226C148.668 110.747 148.332 111.459 147.939 112.232C147.547 113.007 147.168 113.695 146.877 114.182C146.585 114.669 146.381 114.954 146.361 114.94C146.339 114.924 146.502 114.613 146.765 114.111C147.056 113.543 147.398 112.876 147.776 112.139C148.152 111.4 148.493 110.732 148.783 110.162C149.044 109.658 149.213 109.351 149.237 109.363Z" fill="#1D2A30"/>
<path d="M139.649 127.636C139.649 127.636 144.545 126.823 145.856 122.99C145.902 122.855 145.789 122.721 145.659 122.76C144.897 122.992 142.684 123.941 139.649 127.636Z" fill="#F03658"/>
<path d="M139.649 127.636C142.684 123.941 144.897 122.992 145.659 122.76C145.675 122.755 145.69 122.753 145.705 122.753C145.795 122.753 145.867 122.833 145.867 122.928C145.867 122.948 145.863 122.969 145.856 122.99C144.709 126.345 140.816 127.386 139.862 127.593C139.765 127.614 139.698 127.627 139.668 127.632C139.656 127.635 139.649 127.636 139.649 127.636Z" fill="#2C612B"/>
<path d="M144.571 124.005C144.587 124.027 144.335 124.263 143.911 124.622C143.487 124.982 142.891 125.463 142.218 125.974C141.545 126.485 140.921 126.926 140.458 127.226C139.994 127.527 139.693 127.687 139.681 127.665C139.667 127.64 139.943 127.438 140.386 127.11C140.883 126.736 141.466 126.298 142.111 125.813C142.754 125.326 143.337 124.886 143.832 124.511C144.276 124.181 144.556 123.984 144.571 124.005Z" fill="#1D2A30"/>
<path d="M134.979 137.221L133.551 147.446H142.45L141.296 137.221H134.979Z" fill="#050B05"/>
<path d="M141.654 140.389C141.654 140.443 140.047 140.487 138.065 140.487C136.083 140.487 134.477 140.443 134.477 140.389C134.477 140.335 136.083 140.29 138.065 140.29C140.047 140.29 141.654 140.335 141.654 140.389Z" fill="#1D2A30"/>
<path d="M141.829 141.202C141.829 141.257 140.17 141.301 138.123 141.301C136.076 141.301 134.417 141.257 134.417 141.202C134.417 141.148 136.076 141.104 138.123 141.104C140.17 141.104 141.829 141.148 141.829 141.202Z" fill="#1D2A30"/>
<path d="M107.222 38.0347C107.222 38.0347 107.14 38.0363 106.981 38.0314C106.821 38.0242 106.584 38.0123 106.274 38.0353C105.657 38.0722 104.731 38.1958 103.641 38.6813C102.562 39.1659 101.301 40.0223 100.297 41.454C99.7985 42.1664 99.3826 43.0235 99.1292 43.9949C98.8848 44.9677 98.8023 46.0467 98.9187 47.1575C99.0504 48.2644 99.369 49.4101 99.9521 50.4621C100.242 50.9865 100.584 51.4964 101.004 51.9458C101.409 52.4083 101.887 52.8176 102.425 53.1289C102.963 53.4386 103.579 53.6339 104.209 53.6069C104.834 53.5852 105.479 53.3508 105.936 52.8656C106.397 52.384 106.625 51.6765 106.625 50.9707C106.628 50.2593 106.397 49.5521 105.998 48.9564C105.196 47.7568 103.899 46.9497 102.519 46.5148C101.125 46.0828 99.5945 46.0716 98.1296 46.4504C97.3997 46.6525 96.6865 46.9491 96.0157 47.3442C95.3455 47.7417 94.7358 48.2601 94.2013 48.8588C94.0746 49.0153 93.9303 49.157 93.8175 49.3266L93.4686 49.8276C93.265 50.1833 93.0561 50.5384 92.8998 50.9247C92.5722 51.687 92.3423 52.5046 92.2277 53.3472C92.0203 55.0311 92.2122 56.7656 92.8519 58.2791C93.4695 59.795 94.5229 61.0962 95.8352 61.8803C96.49 62.2698 97.214 62.521 97.9482 62.5634C98.6808 62.6117 99.4113 62.4109 100.033 62.0308C100.654 61.6518 101.172 61.0821 101.444 60.3956C101.714 59.7099 101.709 58.9271 101.476 58.2463C101.246 57.5579 100.816 56.9701 100.314 56.4983C99.8093 56.0269 99.22 55.6738 98.6051 55.4417C97.3586 55.0087 96.0308 55.0321 94.8434 55.3723C93.6528 55.7172 92.5914 56.3694 91.758 57.2028C90.9259 58.0411 90.3418 59.0695 89.989 60.1195C89.2761 62.236 89.4575 64.3844 90.0699 66.0258C90.7003 67.6814 91.7014 68.8603 92.6158 69.6394C93.5384 70.4242 94.3783 70.8476 94.9549 71.0889C95.2454 71.2066 95.4694 71.2901 95.623 71.3361C95.7753 71.3867 95.8522 71.417 95.8522 71.417C95.8522 71.417 95.7722 71.3979 95.6183 71.3529C95.4626 71.3125 95.2367 71.2339 94.9429 71.1211C94.361 70.8893 93.5119 70.4735 92.5765 69.6914C91.6498 68.9145 90.6323 67.733 89.9862 66.0616C89.3583 64.4031 89.1655 62.2294 89.8817 60.0787C90.2365 59.0119 90.8267 57.9635 91.6727 57.1068C92.5191 56.2563 93.5965 55.5896 94.8087 55.2352C96.0179 54.8861 97.37 54.8568 98.6508 55.2993C99.2843 55.537 99.8887 55.898 100.41 56.3823C100.927 56.8668 101.374 57.473 101.616 58.193C101.861 58.9057 101.869 59.7329 101.584 60.4578C101.297 61.1827 100.755 61.7777 100.11 62.1725C99.4644 62.5683 98.7025 62.7787 97.9398 62.7291C97.1785 62.6857 96.431 62.426 95.7586 62.0269C94.412 61.2234 93.3364 59.8943 92.7051 58.3475C92.0525 56.8037 91.8569 55.0386 92.0685 53.3229C92.185 52.4649 92.4193 51.6311 92.7539 50.853C92.9136 50.4588 93.1269 50.0959 93.3351 49.7326L93.692 49.2204C93.8076 49.0472 93.9547 48.9022 94.0845 48.7424C94.6308 48.1303 95.254 47.602 95.9375 47.197C96.6216 46.7942 97.3481 46.4928 98.0913 46.2876C99.5831 45.903 101.14 45.9158 102.562 46.358C103.969 46.8048 105.289 47.623 106.12 48.8664C106.531 49.4828 106.775 50.2267 106.77 50.971C106.769 51.7097 106.529 52.4583 106.036 52.9728C105.546 53.4892 104.866 53.7319 104.214 53.7532C103.555 53.7795 102.914 53.5741 102.362 53.2539C101.808 52.932 101.322 52.5125 100.911 52.0408C100.485 51.5818 100.137 51.0624 99.8448 50.5282C99.2553 49.4578 98.9357 48.2943 98.8053 47.1716C98.691 46.0447 98.7791 44.9513 99.0306 43.966C99.2911 42.9824 99.7172 42.1151 100.224 41.3965C101.247 39.9536 102.526 39.0989 103.617 38.6199C104.719 38.1399 105.653 38.0268 106.273 38.0011C106.584 37.9834 106.822 38.0012 106.982 38.014C107.141 38.0248 107.222 38.0347 107.222 38.0347Z" fill="#1D2A30"/>
<path d="M74.2178 106.481H117.543V70.9296H74.2178V106.481Z" fill="#69A3FF"/>
<path d="M74.2178 70.9301L82.2202 78.8711H124.811L117.543 70.9301H74.2178Z" fill="#69A3FF"/>
<path d="M74.2178 70.9296C74.9995 70.928 92.894 70.8935 117.543 70.8455H117.576L117.6 70.8711C119.921 73.4064 122.329 76.0374 124.793 78.7292L124.868 78.8108L125.002 78.9561H124.811C107.346 78.9419 91.8462 78.9298 82.2203 78.9222H82.2011L82.1872 78.9081C77.1798 73.895 74.4807 71.1926 74.2178 70.9296C74.4826 71.1897 77.2043 73.867 82.2533 78.8328L82.2203 78.819C91.8462 78.8114 107.346 78.7989 124.811 78.7848L124.753 78.9301L124.678 78.8486C122.215 76.1561 119.807 73.5245 117.486 70.9882L117.543 71.0135C92.894 70.9658 74.9989 70.931 74.2178 70.9296Z" fill="#1D2A30"/>
<path d="M87.2318 87.3231C86.7732 87.3241 86.3548 87.762 86.3468 88.2498C86.3391 88.7374 86.7429 89.1907 87.2012 89.2085C87.6591 89.2259 88.093 88.8051 88.118 88.3179C88.1433 87.831 87.7558 87.3616 87.2982 87.3257" fill="#1D2A30"/>
<path d="M97.4609 87.3231C97.0027 87.3241 96.584 87.762 96.5763 88.2498C96.5683 88.7374 96.9721 89.1907 97.4304 89.2085C97.8886 89.2259 98.3221 88.8051 98.3471 88.3179C98.3725 87.831 97.985 87.3616 97.5277 87.3257" fill="#1D2A30"/>
<path d="M97.5258 95.8336C97.4792 95.854 97.4112 94.944 96.668 93.7901C96.3031 93.2178 95.7568 92.6112 95.0316 92.1194C94.3107 91.6276 93.3951 91.2732 92.406 91.2351C91.4157 91.2157 90.4834 91.5158 89.7381 91.9649C88.9885 92.4137 88.4116 92.9877 88.0176 93.538C87.2167 94.6465 87.1014 95.5513 87.0563 95.5282C87.0507 95.5269 87.0597 95.4737 87.0813 95.3727C87.1076 95.2735 87.1277 95.1199 87.1947 94.9362C87.3066 94.5611 87.5337 94.0354 87.9267 93.4647C88.3176 92.8936 88.8998 92.296 89.6649 91.8278C90.4256 91.359 91.386 91.0434 92.4103 91.0641C93.4341 91.1036 94.3762 91.4744 95.1113 91.9866C95.8517 92.4988 96.4017 93.1293 96.7623 93.7224C97.1257 94.3148 97.3253 94.8533 97.4177 95.2343C97.4755 95.4221 97.4875 95.5762 97.5085 95.6768C97.5252 95.7787 97.5311 95.833 97.5258 95.8336Z" fill="#1D2A30"/>
<path d="M117.543 81.6562H109.048C109.038 80.2659 109.025 79.3093 109.012 78.9437C111.766 78.9457 114.616 78.948 117.543 78.9503V81.6562Z" fill="#003C9C"/>
<path d="M117.544 78.9502C114.617 78.9479 111.767 78.9456 109.013 78.9436C109.012 78.9157 109.011 78.8913 109.01 78.8706H117.544V78.9502Z" fill="#151717"/>
<path d="M108.95 81.6562H81.9774L74.3154 71.3206L80.6839 77.4039C81.1595 77.8799 81.66 78.3812 82.1866 78.9082L82.2005 78.9223H82.2196C88.8081 78.9276 98.148 78.9348 108.986 78.9437C108.973 79.3093 108.96 80.266 108.95 81.6562Z" fill="#003C9C"/>
<path d="M108.988 78.9434C98.1496 78.9345 88.8098 78.9272 82.2213 78.922H82.2021L82.1882 78.9079C81.6617 78.3809 81.1611 77.8795 80.6855 77.4035L82.2213 78.8704H108.991C108.99 78.8911 108.989 78.9154 108.988 78.9434Z" fill="#151717"/>
<path d="M109 106.4C108.955 106.4 108.919 100.217 108.919 92.5902C108.919 84.9612 108.955 78.7787 109 78.7787C109.044 78.7787 109.08 84.9612 109.08 92.5902C109.08 100.217 109.044 106.4 109 106.4Z" fill="#1D2A30"/>
<path d="M115.802 102.934H111.983V98.3406H115.802V102.934Z" fill="#F8F8F9"/>
<path d="M74.2178 70.9301L65.3232 78.8711H74.2178V70.9301Z" fill="#F03658"/>
<path d="M74.2178 78.8711H65.3232L74.2178 70.9301V78.8711Z" fill="#003C9C"/>
<path d="M69.0078 147.357H118.821V106.481H69.0078V147.357Z" fill="#F03658"/>
<path d="M118.821 147.357H69.0078V106.481H118.821V114.413V121.518V147.357Z" fill="#003C9C"/>
<path d="M106.341 147.069C106.297 147.069 106.261 137.958 106.261 126.722C106.261 115.481 106.297 106.371 106.341 106.371C106.386 106.371 106.422 115.481 106.422 126.722C106.422 137.958 106.386 147.069 106.341 147.069Z" fill="#1D2A30"/>
<path d="M114.598 142.647H110.779V138.055H114.598V142.647Z" fill="#F8F8F9"/>
<path d="M84.2051 106.586V115.309H89.8629V106.586H84.2051Z" fill="#002157"/>
<path d="M84.2051 138.515V147.236H89.8629V138.515H84.2051Z" fill="#002157"/>
<path d="M118.387 106.482C118.387 106.485 118.344 106.488 118.26 106.491C118.168 106.493 118.044 106.496 117.885 106.5C117.548 106.504 117.065 106.509 116.446 106.516C115.189 106.522 113.383 106.531 111.155 106.543C106.68 106.549 100.512 106.558 93.6984 106.567C86.8831 106.558 80.7139 106.549 76.2387 106.543C74.0111 106.531 72.2056 106.522 70.948 106.516C70.33 106.509 69.8467 106.504 69.5093 106.5C69.3511 106.496 69.2272 106.493 69.1354 106.491C69.0511 106.488 69.0078 106.485 69.0078 106.482C69.0078 106.479 69.0511 106.477 69.1354 106.474C69.2272 106.471 69.3511 106.469 69.5093 106.465C69.8467 106.461 70.33 106.456 70.948 106.449C72.2056 106.442 74.0111 106.433 76.2387 106.422C80.7139 106.415 86.8831 106.406 93.6984 106.396C100.512 106.406 106.68 106.415 111.155 106.422C113.383 106.433 115.189 106.442 116.446 106.449C117.065 106.456 117.548 106.461 117.885 106.465C118.044 106.469 118.168 106.471 118.26 106.474C118.344 106.477 118.387 106.479 118.387 106.482Z" fill="#1D2A30"/>
</svg>
